<?xml version="1.0" standalone="no"?>
<!DOCTYPE svg PUBLIC "-//W3C//DTD SVG 20010904//EN"
 "http://www.w3.org/TR/2001/REC-SVG-20010904/DTD/svg10.dtd">
<svg version="1.0" xmlns="http://www.w3.org/2000/svg"
 width="3000.000000pt" height="1544.000000pt" viewBox="0 0 3000.000000 1544.000000"
 preserveAspectRatio="xMidYMid meet">

<g transform="translate(0.000000,1544.000000) scale(0.100000,-0.100000)"
fill="#000000" stroke="none">
<path d="M10305 14104 c-1156 -76 -2184 -667 -2827 -1627 -302 -451 -498 -966
-579 -1522 -30 -209 -38 -636 -15 -852 76 -714 342 -1369 779 -1913 697 -868
1727 -1366 2847 -1373 215 -2 356 13 611 64 903 180 1933 753 2887 1606 285
254 296 267 313 359 47 255 317 386 550 266 43 -22 61 -27 74 -19 30 16 118
37 160 37 58 0 154 -27 197 -55 l37 -24 48 21 c38 18 67 22 139 23 84 0 95 -3
162 -35 61 -31 75 -34 94 -24 112 57 299 34 397 -49 25 -21 44 -24 197 -35
186 -13 225 -8 282 35 62 47 90 145 61 220 -14 38 -67 92 -106 109 -20 8 -120
20 -250 29 -270 19 -303 23 -303 38 1 36 11 37 210 22 107 -8 231 -15 276 -15
72 0 85 3 127 29 82 53 112 163 68 249 -46 90 -78 101 -370 123 -135 10 -247
18 -248 19 -2 0 -3 11 -3 25 0 30 -19 29 220 10 256 -20 295 -19 348 6 119 58
141 223 43 312 -51 46 -81 53 -276 66 -287 20 -283 19 -277 47 2 13 9 24 16
24 6 0 111 -7 234 -16 257 -19 282 -15 346 56 63 70 69 150 16 233 -36 57 -91
83 -190 91 -120 10 -1067 56 -1155 56 -88 0 -129 -17 -161 -65 -9 -15 -54
-150 -99 -301 -68 -226 -89 -285 -120 -330 -141 -204 -439 -231 -615 -54 -78
77 -120 181 -119 290 0 37 31 170 93 400 l92 345 -26 3 c-43 5 -169 -25 -236
-57 -73 -34 -149 -102 -193 -170 -17 -26 -93 -218 -169 -428 -111 -304 -148
-394 -185 -450 -55 -83 -403 -428 -627 -623 -798 -691 -1537 -1111 -2191
-1246 -125 -26 -151 -28 -389 -28 -284 -1 -369 9 -606 69 -990 253 -1734 1122
-1833 2139 -107 1101 528 2140 1553 2541 472 185 968 219 1441 99 463 -118
992 -392 1531 -795 331 -247 601 -485 986 -869 l306 -306 16 27 c50 85 172
186 283 235 67 30 192 61 288 71 l69 8 41 150 c42 153 65 208 118 282 l30 42
-98 105 c-137 149 -494 497 -665 650 -1091 973 -2100 1509 -3072 1631 -121 15
-466 26 -583 19z"/>
<path d="M19271 14089 c-563 -54 -1087 -251 -1645 -617 -563 -369 -1146 -931
-1603 -1543 -105 -141 -133 -171 -176 -195 l-52 -29 -355 -5 c-388 -6 -394 -7
-484 -70 -48 -33 -104 -96 -130 -148 -28 -54 -326 -1187 -326 -1237 0 -57 18
-100 61 -150 70 -79 189 -99 284 -47 80 44 97 78 183 372 44 146 88 284 100
306 29 56 102 119 171 145 l56 22 580 -27 c720 -34 709 -34 784 -1 71 32 104
65 211 215 345 480 831 989 1232 1293 538 406 1010 575 1505 538 496 -37 919
-195 1313 -490 543 -406 901 -1037 971 -1709 17 -165 7 -516 -20 -667 -44
-252 -108 -449 -222 -681 -118 -242 -276 -462 -469 -654 -375 -374 -837 -608
-1375 -697 -155 -25 -548 -25 -685 0 -516 97 -1055 355 -1655 790 -137 100
-418 323 -525 418 -45 39 -83 69 -85 67 -2 -2 2 -26 10 -53 19 -62 19 -126 -1
-200 -30 -116 -105 -206 -214 -259 -64 -30 -68 -31 -210 -31 l-146 0 4 -25 c2
-14 -1 -77 -7 -140 -9 -104 -14 -122 -51 -195 l-41 -80 38 -34 c183 -162 552
-440 818 -616 1118 -742 2075 -983 3095 -779 1011 202 1888 822 2422 1714 272
453 438 954 499 1510 19 168 16 562 -5 745 -120 1048 -663 1970 -1521 2582
-313 223 -726 422 -1096 527 -400 114 -895 168 -1238 135z"/>
<path d="M14615 8976 c-46 -20 -91 -62 -110 -103 -10 -21 -22 -78 -27 -128
-11 -120 5 -177 65 -232 100 -92 243 -73 316 42 l28 44 29 -56 c77 -151 277
-160 361 -16 l27 47 14 -35 c44 -108 144 -164 248 -138 35 9 61 25 96 60 27
27 48 55 48 64 0 27 16 16 29 -20 57 -159 274 -186 366 -46 43 65 59 237 29
309 -45 108 -167 160 -272 117 -48 -20 -79 -50 -105 -100 l-20 -40 -14 41
c-28 83 -113 144 -200 144 -68 0 -149 -49 -177 -107 -25 -50 -31 -52 -39 -15
-24 111 -160 180 -270 138 -46 -17 -95 -63 -119 -110 l-15 -29 -12 34 c-16 50
-68 109 -115 130 -48 22 -118 24 -161 5z"/>
<path d="M2990 5134 c-19 -2 -77 -9 -128 -15 -444 -51 -715 -248 -793 -575
-23 -98 -28 -297 -9 -394 58 -304 242 -481 570 -551 92 -19 149 -23 470 -29
392 -8 412 -10 523 -66 134 -69 207 -204 207 -389 0 -267 -138 -436 -413 -506
-66 -17 -123 -22 -297 -26 -230 -5 -401 8 -609 48 -90 18 -301 74 -354 94 -16
7 -17 -3 -15 -156 l3 -164 120 -27 c244 -54 555 -88 816 -88 775 0 1141 305
1098 915 -23 311 -182 520 -469 614 -136 44 -219 53 -595 61 -385 8 -409 11
-515 65 -45 23 -113 88 -142 135 -52 86 -72 257 -44 382 46 208 210 329 509
374 115 18 490 14 627 -6 173 -25 411 -82 523 -125 16 -7 17 5 17 153 l0 161
-52 15 c-92 26 -298 64 -438 81 -128 15 -536 28 -610 19z"/>
<path d="M5815 5129 c-143 -14 -251 -37 -382 -81 -374 -123 -613 -377 -727
-771 -101 -349 -95 -843 14 -1176 101 -310 279 -520 555 -656 197 -97 408
-143 700 -152 527 -16 911 119 1160 410 146 169 242 412 281 712 22 169 15
534 -14 695 -103 572 -433 902 -1001 1001 -135 23 -443 33 -586 18z m440 -289
c374 -54 617 -249 728 -586 57 -176 71 -277 71 -529 0 -133 -5 -252 -12 -300
-81 -498 -332 -768 -779 -834 -106 -16 -365 -14 -469 4 -432 74 -668 319 -761
790 -25 130 -25 541 0 670 75 375 238 598 525 715 63 26 216 65 287 73 67 8
345 6 410 -3z"/>
<path d="M9155 5134 c-205 -21 -319 -43 -455 -86 -426 -136 -696 -440 -784
-883 -37 -189 -48 -468 -25 -673 79 -726 483 -1119 1223 -1191 295 -29 675 4
941 83 l80 23 3 153 c2 121 0 151 -10 147 -127 -48 -331 -97 -488 -117 -124
-15 -408 -12 -525 5 -377 57 -626 229 -765 529 -149 320 -159 852 -21 1175 69
161 205 314 356 400 93 53 236 103 366 128 134 25 543 25 679 0 113 -21 262
-58 344 -87 33 -11 61 -20 63 -20 1 0 3 67 3 150 l0 149 -63 20 c-89 27 -245
60 -367 77 -102 14 -475 26 -555 18z"/>
<path d="M18813 5130 c-481 -51 -758 -225 -852 -534 -67 -220 -42 -503 62
-686 47 -84 148 -178 245 -228 166 -87 332 -112 731 -112 301 0 382 -10 487
-59 155 -72 235 -232 220 -437 -18 -253 -140 -390 -411 -466 -74 -21 -101 -22
-355 -22 -296 -1 -389 9 -617 60 -99 22 -235 60 -290 81 -11 4 -13 -24 -11
-158 l3 -164 119 -27 c274 -62 610 -94 896 -85 334 11 533 61 717 183 161 107
260 267 293 476 18 111 8 322 -20 418 -71 245 -236 397 -504 465 -136 35 -269
45 -576 45 -290 0 -353 8 -453 55 -146 70 -217 200 -217 400 0 257 127 405
415 482 96 26 109 27 370 27 213 1 294 -3 385 -17 144 -23 298 -58 418 -96
l92 -29 -2 161 -3 161 -50 13 c-105 27 -305 64 -430 78 -154 19 -546 27 -662
15z"/>
<path d="M21690 5129 c-499 -50 -849 -267 -1026 -637 -119 -248 -172 -593
-146 -944 31 -422 143 -702 365 -915 120 -115 239 -187 407 -247 343 -124 878
-128 1230 -10 357 120 609 383 715 749 55 191 69 308 70 580 0 192 -4 276 -18
363 -103 648 -481 996 -1156 1062 -119 12 -319 11 -441 -1z m549 -308 c188
-48 302 -110 422 -230 74 -75 93 -101 142 -201 97 -195 131 -368 131 -670 0
-674 -251 -1038 -774 -1126 -128 -21 -434 -15 -550 11 -179 40 -318 114 -435
230 -152 151 -229 324 -271 609 -23 154 -15 508 14 646 69 322 215 531 455
649 180 89 303 111 582 106 162 -2 216 -7 284 -24z"/>
<path d="M10800 3715 l0 -1405 180 0 180 0 0 1405 0 1405 -180 0 -180 0 0
-1405z"/>
<path d="M12789 5073 c-113 -263 -1169 -2754 -1169 -2758 0 -3 82 -4 181 -3
l182 3 493 1205 c272 663 499 1216 505 1230 8 20 12 22 19 10 16 -30 513
-1236 517 -1257 l5 -23 -355 0 -355 0 -43 -127 c-23 -71 -44 -134 -47 -140 -3
-10 93 -13 460 -13 l464 0 149 -362 c81 -200 164 -400 183 -445 l34 -83 195 0
c115 0 193 4 191 9 -1 5 -271 637 -598 1405 l-595 1396 -198 0 -198 0 -20 -47z"/>
<path d="M14800 3715 l0 -1405 915 0 915 0 0 145 0 145 -735 0 -735 0 0 1260
0 1260 -180 0 -180 0 0 -1405z"/>
<path d="M23890 3715 l0 -1405 180 0 180 0 0 640 0 640 705 0 705 0 0 145 0
145 -705 0 -705 0 0 475 0 475 740 0 740 0 0 145 0 145 -920 0 -920 0 0 -1405z"/>
<path d="M25940 4975 l0 -145 440 0 440 0 0 -1260 0 -1260 180 0 180 0 0 1260
0 1260 445 0 445 0 0 145 0 145 -1065 0 -1065 0 0 -145z"/>
</g>
</svg>
